HIERARCHY
ROOT Hips
{
  OFFSET 1.083 25.003 -227.521
  CHANNELS 6 Xposition Yposition Zposition Zrotation Xrotation Yrotation
  JOINT LeftUpLeg
  {
    OFFSET 6.287 -5.779 2.492
    CHANNELS 6 Xposition Yposition Zposition Zrotation Xrotation Yrotation
    JOINT LeftLeg
    {
      OFFSET -0.000 -47.286 0.000
      CHANNELS 6 Xposition Yposition Zposition Zrotation Xrotation Yrotation
      JOINT LeftFoot
      {
        OFFSET 0.000 -40.660 -0.000
        CHANNELS 6 Xposition Yposition Zposition Zrotation Xrotation Yrotation
        End Site
        {
          OFFSET 0.000 -7.335 4.235
        }
      }
    }
  }
  JOINT RightUpLeg
  {
    OFFSET -6.405 -5.937 2.852
    CHANNELS 6 Xposition Yposition Zposition Zrotation Xrotation Yrotation
    JOINT RightLeg
    {
      OFFSET 0.000 -47.066 0.000
      CHANNELS 6 Xposition Yposition Zposition Zrotation Xrotation Yrotation
      JOINT RightFoot
      {
        OFFSET 0.000 -42.440 -0.000
        CHANNELS 6 Xposition Yposition Zposition Zrotation Xrotation Yrotation
        End Site
        {
          OFFSET 0.000 -7.272 4.199
        }
      }
    }
  }
  JOINT Spine
  {
    OFFSET 0.000 5.597 -5.597
    CHANNELS 6 Xposition Yposition Zposition Zrotation Xrotation Yrotation
    JOINT LeftShoulder
    {
      OFFSET -0.000 39.199 0.000
      CHANNELS 6 Xposition Yposition Zposition Zrotation Xrotation Yrotation
      JOINT LeftArm
      {
        OFFSET 18.860 0.000 -0.000
        CHANNELS 6 Xposition Yposition Zposition Zrotation Xrotation Yrotation
        JOINT LeftForeArm
        {
          OFFSET 20.133 0.000 0.000
          CHANNELS 6 Xposition Yposition Zposition Zrotation Xrotation Yrotation
          JOINT LeftHand
          {
            OFFSET 24.772 0.000 -0.000
            CHANNELS 6 Xposition Yposition Zposition Zrotation Xrotation Yrotation
            JOINT LeftHandThumb1
            {
            OFFSET 4.970 -0.620 3.390
            CHANNELS 6 Xposition Yposition Zposition Zrotation Xrotation Yrotation
              JOINT LeftHandThumb2
              {
              OFFSET 2.150 -0.000 0.000
              CHANNELS 6 Xposition Yposition Zposition Zrotation Xrotation Yrotation
                JOINT LeftHandThumb3
                {
                OFFSET 2.200 -0.000 0.000
                CHANNELS 6 Xposition Yposition Zposition Zrotation Xrotation Yrotation
                  JOINT LeftHandThumb4
                  {
                  OFFSET 1.700 -0.000 0.000
                  CHANNELS 6 Xposition Yposition Zposition Zrotation Xrotation Yrotation
                  }
                }
              }
            }
            JOINT LeftHandIndex1
            {
            OFFSET 8.730 0.680 2.070
            CHANNELS 6 Xposition Yposition Zposition Zrotation Xrotation Yrotation
              JOINT LeftHandIndex2
              {
              OFFSET 2.670 -0.000 0.000
              CHANNELS 6 Xposition Yposition Zposition Zrotation Xrotation Yrotation
                JOINT LeftHandIndex3
                {
                OFFSET 2.130 -0.000 0.000
                CHANNELS 6 Xposition Yposition Zposition Zrotation Xrotation Yrotation
                  JOINT LeftHandIndex4
                  {
                  OFFSET 1.800 -0.000 0.000
                  CHANNELS 6 Xposition Yposition Zposition Zrotation Xrotation Yrotation
                  }
                }
              }
            }
            JOINT LeftHandMiddle1
            {
            OFFSET 9.220 0.670 0.550
            CHANNELS 6 Xposition Yposition Zposition Zrotation Xrotation Yrotation
              JOINT LeftHandMiddle2
              {
              OFFSET 2.660 -0.000 0.000
              CHANNELS 6 Xposition Yposition Zposition Zrotation Xrotation Yrotation
                JOINT LeftHandMiddle3
                {
                OFFSET 2.280 -0.000 0.000
                CHANNELS 6 Xposition Yposition Zposition Zrotation Xrotation Yrotation
                  JOINT LeftHandMiddle4
                  {
                  OFFSET 1.500 -0.000 0.000
                  CHANNELS 6 Xposition Yposition Zposition Zrotation Xrotation Yrotation
                  }
                }
              }
            }
            JOINT LeftHandRing1
            {
            OFFSET 9.250 0.670 -1.130
            CHANNELS 6 Xposition Yposition Zposition Zrotation Xrotation Yrotation
              JOINT LeftHandRing2
              {
              OFFSET 2.470 -0.000 0.000
              CHANNELS 6 Xposition Yposition Zposition Zrotation Xrotation Yrotation
                JOINT LeftHandRing3
                {
                OFFSET 2.210 -0.000 0.000
                CHANNELS 6 Xposition Yposition Zposition Zrotation Xrotation Yrotation
                  JOINT LeftHandRing4
                  {
                  OFFSET 1.800 -0.000 0.000
                  CHANNELS 6 Xposition Yposition Zposition Zrotation Xrotation Yrotation
                  }
                }
              }
            }
            JOINT LeftHandPinky1
            {
            OFFSET 9.350 0.660 -2.720
            CHANNELS 6 Xposition Yposition Zposition Zrotation Xrotation Yrotation
              JOINT LeftHandPinky2
              {
              OFFSET 1.630 -0.000 0.000
              CHANNELS 6 Xposition Yposition Zposition Zrotation Xrotation Yrotation
                JOINT LeftHandPinky3
                {
                OFFSET 1.710 -0.000 0.000
                CHANNELS 6 Xposition Yposition Zposition Zrotation Xrotation Yrotation
                  JOINT LeftHandPinky4
                  {
                  OFFSET 1.800 -0.000 0.000
                  CHANNELS 6 Xposition Yposition Zposition Zrotation Xrotation Yrotation
                  }
                }
              }
            }
          }
        }
      }
    }
    JOINT RightShoulder
    {
      OFFSET -0.000 39.199 0.000
      CHANNELS 6 Xposition Yposition Zposition Zrotation Xrotation Yrotation
      JOINT RightArm
      {
        OFFSET -20.358 0.000 -0.000
        CHANNELS 6 Xposition Yposition Zposition Zrotation Xrotation Yrotation
        JOINT RightForeArm
        {
          OFFSET -21.653 0.000 0.000
          CHANNELS 6 Xposition Yposition Zposition Zrotation Xrotation Yrotation
          JOINT RightHand
          {
            OFFSET -24.647 0.000 -0.000
            CHANNELS 6 Xposition Yposition Zposition Zrotation Xrotation Yrotation
            JOINT RightHandThumb1
            {
            OFFSET -4.970 -0.620 3.390
            CHANNELS 6 Xposition Yposition Zposition Zrotation Xrotation Yrotation
              JOINT RightHandThumb2
              {
              OFFSET -2.150 0.000 0.000
              CHANNELS 6 Xposition Yposition Zposition Zrotation Xrotation Yrotation
                JOINT RightHandThumb3
                {
                OFFSET -2.200 0.000 0.000
                CHANNELS 6 Xposition Yposition Zposition Zrotation Xrotation Yrotation
                  JOINT RightHandThumb4
                  {
                  OFFSET -1.700 0.000 0.000
                  CHANNELS 6 Xposition Yposition Zposition Zrotation Xrotation Yrotation
                  }
                }
              }
            }
            JOINT RightHandIndex1
            {
            OFFSET -8.730 0.680 2.070
            CHANNELS 6 Xposition Yposition Zposition Zrotation Xrotation Yrotation
              JOINT RightHandIndex2
              {
              OFFSET -2.670 0.000 0.000
              CHANNELS 6 Xposition Yposition Zposition Zrotation Xrotation Yrotation
                JOINT RightHandIndex3
                {
                OFFSET -2.130 0.000 0.000
                CHANNELS 6 Xposition Yposition Zposition Zrotation Xrotation Yrotation
                  JOINT RightHandIndex4
                  {
                  OFFSET -1.800 0.000 0.000
                  CHANNELS 6 Xposition Yposition Zposition Zrotation Xrotation Yrotation
                  }
                }
              }
            }
            JOINT RightHandMiddle1
            {
            OFFSET -9.220 0.670 0.550
            CHANNELS 6 Xposition Yposition Zposition Zrotation Xrotation Yrotation
              JOINT RightHandMiddle2
              {
              OFFSET -2.660 0.000 0.000
              CHANNELS 6 Xposition Yposition Zposition Zrotation Xrotation Yrotation
                JOINT RightHandMiddle3
                {
                OFFSET -2.280 0.000 0.000
                CHANNELS 6 Xposition Yposition Zposition Zrotation Xrotation Yrotation
                  JOINT RightHandMiddle4
                  {
                  OFFSET -1.500 0.000 0.000
                  CHANNELS 6 Xposition Yposition Zposition Zrotation Xrotation Yrotation
                  }
                }
              }
            }
            JOINT RightHandRing1
            {
            OFFSET -9.250 0.670 -1.130
            CHANNELS 6 Xposition Yposition Zposition Zrotation Xrotation Yrotation
              JOINT RightHandRing2
              {
              OFFSET -2.470 0.000 0.000
              CHANNELS 6 Xposition Yposition Zposition Zrotation Xrotation Yrotation
                JOINT RightHandRing3
                {
                OFFSET -2.210 0.000 0.000
                CHANNELS 6 Xposition Yposition Zposition Zrotation Xrotation Yrotation
                  JOINT RightHandRing4
                  {
                  OFFSET -1.800 0.000 0.000
                  CHANNELS 6 Xposition Yposition Zposition Zrotation Xrotation Yrotation
                  }
                }
              }
            }
            JOINT RightHandPinky1
            {
            OFFSET -9.350 0.660 -2.720
            CHANNELS 6 Xposition Yposition Zposition Zrotation Xrotation Yrotation
              JOINT RightHandPinky2
              {
              OFFSET -1.630 0.000 0.000
              CHANNELS 6 Xposition Yposition Zposition Zrotation Xrotation Yrotation
                JOINT RightHandPinky3
                {
                OFFSET -1.710 0.000 0.000
                CHANNELS 6 Xposition Yposition Zposition Zrotation Xrotation Yrotation
                  JOINT RightHandPinky4
                  {
                  OFFSET -1.800 0.000 0.000
                  CHANNELS 6 Xposition Yposition Zposition Zrotation Xrotation Yrotation
                  }
                }
              }
            }
          }
        }
      }
    }
    JOINT Neck
    {
      OFFSET -0.000 39.199 0.000
      CHANNELS 6 Xposition Yposition Zposition Zrotation Xrotation Yrotation
      JOINT Head
      {
        OFFSET -0.000 14.817 -0.000
        CHANNELS 6 Xposition Yposition Zposition Zrotation Xrotation Yrotation
        End Site
        {
          OFFSET -0.000 0.059 -0.000
        }
      }
    }
  }
}
MOTION
Frames:	5
Frame Time:	0.0333333
1.0981 24.5272 -219.444 -4.96224 11.663 -0.737021 6.14957 -6.29026 1.71762 3.47597 -15.0734 1.63417 -7.45058e-07 -47.0929 0 4.59498 17.1293 6.70052e-07 1.11759e-06 -40.7105 -4.76837e-05 -7.20072 -5.29353 -4.18188 -6.57019 -6.20871 2.3942 -0.130568 -14.5088 0.544029 0 -47.1433 0 11.0658 13.2408 9.59318e-07 2.23517e-06 -40.6976 4.76837e-05 -16.974 6.87466 -8.26164 0 5.94291 -5.94289 -1.4899 -10.2628 4.05196 -1.49012e-06 39.1998 0 -35.3431 1.12058e-05 -3.52803 17.971 -5.96046e-06 0 -16.1184 37.6203 -3.58146 20.0578 -1.19209e-05 2.38419e-05 2.78337e-05 2.93472e-06 -109.829 23.4357 3.57628e-05 -1.19209e-05 0.736197 -0.134074 -8.1151 0.0062 0.0497 0.0339 -31.7264 0 0 0 0.0215 0 0 -31.7264 0 0 0.022 0 0 -31.7264 0 0 0.017 0 0 0 0 -0.0068 0.0873 0.0207 -31.7264 0 0 0 0.0267 0 -56.4025 0 0 0 0.0213 0 -63.4528 0 0 0 0.018 0 0 0 0 -0.0067 0.0922 0.0055 -31.7264 0 0 0 0.0266 0 -56.4025 0 0 0 0.0228 0 -63.4528 0 0 0 0.015 0 0 0 0 -0.0067 0.0925 -0.0113 -31.7264 0 0 0 0.0247 0 -56.4025 0 0 0 0.0221 0 -63.4528 0 0 0 0.018 0 0 0 0 -0.0066 0.0935 -0.0272 -31.7264 0 0 0 0.0163 0 -56.4025 0 0 0 0.0171 0 -63.4528 0 0 0 0.018 0 0 0 0 -1.49012e-06 39.1998 0 44.6801 -4.26887e-06 3.11795 -20.3317 1.19209e-05 -9.53674e-05 29.9277 22.9624 -22.7014 -21.9728 0 4.76837e-05 -2.10884e-06 9.46873e-06 115.112 -26.1409 -1.19209e-05 5.96046e-06 -29.6848 0.631987 -20.4151 -0.0062 0.0497 0.0339 45 0 0 0 0.0215 0 0 -45 0 0 0.022 0 0 -45 0 0 0.017 0 0 0 0 0.0068 0.0873 0.0207 45 0 0 0 0.0267 0 80 0 0 0 0.0213 0 90 0 0 0 0.018 0 0 0 0 0.0067 0.0922 0.0055 45 0 0 0 0.0266 0 80 0 0 0 0.0228 0 90 0 0 0 0.015 0 0 0 0 0.0067 0.0925 -0.0113 45 0 0 0 0.0247 0 80 0 0 0 0.0221 0 90 0 0 0 0.018 0 0 0 0 0.0066 0.0935 -0.0272 45 0 0 0 0.0163 0 80 0 0 0 0.0171 0 90 0 0 0 0.018 0 0 0 0 -1.49012e-06 39.1998 0 15.3027 0.744964 -0.20383 2.98023e-06 15.4754 -4.76837e-05 8.63112e-06 -1.00318e-05 6.4033e-07 
1.0981 24.5272 -219.444 -4.96224 11.663 -0.737021 6.14957 -6.29026 1.71762 3.47597 -15.0734 1.63417 -7.45058e-07 -47.0929 0 4.59498 17.1293 6.70052e-07 1.11759e-06 -40.7105 -4.76837e-05 -7.20072 -5.29353 -4.18188 -6.57019 -6.20871 2.3942 -0.130568 -14.5088 0.544029 0 -47.1433 0 11.0658 13.2408 9.59318e-07 2.23517e-06 -40.6976 4.76837e-05 -16.974 6.87466 -8.26164 0 5.94291 -5.94289 -1.4899 -10.2628 4.05196 -1.49012e-06 39.1998 0 -35.3431 1.12058e-05 -3.52803 17.971 -5.96046e-06 0 -16.1184 37.6203 -3.58146 20.0578 -1.19209e-05 2.38419e-05 2.78337e-05 2.93472e-06 -109.829 23.4357 3.57628e-05 -1.19209e-05 0.736197 -0.134074 -8.1151 0.0062 0.0497 0.0339 -31.7264 0 0 0 0.0215 0 0 -31.7264 0 0 0.022 0 0 -31.7264 0 0 0.017 0 0 0 0 -0.0068 0.0873 0.0207 -31.7264 0 0 0 0.0267 0 -56.4025 0 0 0 0.0213 0 -63.4528 0 0 0 0.018 0 0 0 0 -0.0067 0.0922 0.0055 -31.7264 0 0 0 0.0266 0 -56.4025 0 0 0 0.0228 0 -63.4528 0 0 0 0.015 0 0 0 0 -0.0067 0.0925 -0.0113 -31.7264 0 0 0 0.0247 0 -56.4025 0 0 0 0.0221 0 -63.4528 0 0 0 0.018 0 0 0 0 -0.0066 0.0935 -0.0272 -31.7264 0 0 0 0.0163 0 -56.4025 0 0 0 0.0171 0 -63.4528 0 0 0 0.018 0 0 0 0 -1.49012e-06 39.1998 0 44.6801 -4.26887e-06 3.11795 -20.3317 1.19209e-05 -9.53674e-05 29.9277 22.9624 -22.7014 -21.9728 0 4.76837e-05 -2.10884e-06 9.46873e-06 115.112 -26.1409 -1.19209e-05 5.96046e-06 -29.6848 0.631987 -20.4151 -0.0062 0.0497 0.0339 45 0 0 0 0.0215 0 0 -45 0 0 0.022 0 0 -45 0 0 0.017 0 0 0 0 0.0068 0.0873 0.0207 45 0 0 0 0.0267 0 80 0 0 0 0.0213 0 90 0 0 0 0.018 0 0 0 0 0.0067 0.0922 0.0055 45 0 0 0 0.0266 0 80 0 0 0 0.0228 0 90 0 0 0 0.015 0 0 0 0 0.0067 0.0925 -0.0113 45 0 0 0 0.0247 0 80 0 0 0 0.0221 0 90 0 0 0 0.018 0 0 0 0 0.0066 0.0935 -0.0272 45 0 0 0 0.0163 0 80 0 0 0 0.0171 0 90 0 0 0 0.018 0 0 0 0 -1.49012e-06 39.1998 0 15.3027 0.744964 -0.20383 2.98023e-06 15.4754 -4.76837e-05 8.63112e-06 -1.00318e-05 6.4033e-07 
-0.384674 25.4835 -219.379 -4.97504 11.7087 -0.146496 6.04938 -6.38528 1.62101 2.98991 -15.3978 2.09924 -7.45058e-07 -48.1179 -2.38419e-05 4.75006 17.5965 4.47842e-07 7.45058e-07 -40.9082 0 -6.59011 -5.3936 -3.8895 -6.48874 -6.30837 2.40078 -0.721463 -14.4292 0.703146 0 -48.0554 2.38419e-05 12.8546 12.9578 1.0951e-06 1.49012e-06 -40.8187 -2.38419e-05 -15.9962 6.64712 -7.8115 1.11759e-06 5.8128 -5.81276 -2.05617 -9.68992 4.24754 -1.49012e-06 39.1998 0 -35.4491 1.29133e-05 -2.87633 18.4756 1.78814e-05 -7.15256e-05 -13.2132 38.4816 -6.03853 19.9579 1.78814e-05 4.76837e-05 5.63393e-05 -1.16674e-05 -108.926 23.5464 -1.19209e-05 5.96046e-06 3.88047 -0.259714 -6.63084 0.0062 0.0497 0.0339 -37.8562 0 0 0 0.0215 0 0 -37.8562 0 0 0.022 0 0 -37.8562 0 0 0.017 0 0 0 0 -0.0068 0.0873 0.0207 -37.8562 0 0 0 0.0267 0 -67.2999 0 0 0 0.0213 0 -75.7124 0 0 0 0.018 0 0 0 0 -0.0067 0.0922 0.0055 -37.8562 0 0 0 0.0266 0 -67.2999 0 0 0 0.0228 0 -75.7124 0 0 0 0.015 0 0 0 0 -0.0067 0.0925 -0.0113 -37.8562 0 0 0 0.0247 0 -67.2999 0 0 0 0.0221 0 -75.7124 0 0 0 0.018 0 0 0 0 -0.0066 0.0935 -0.0272 -37.8562 0 0 0 0.0163 0 -67.2999 0 0 0 0.0171 0 -75.7124 0 0 0 0.018 0 0 0 0 -1.49012e-06 39.1998 0 46.6253 -6.4033e-06 2.56498 -20.7164 5.96046e-06 -4.76837e-05 27.5328 23.1572 -20.391 -21.8694 -5.96046e-06 -4.76837e-05 -2.202e-06 9.66502e-06 115.67 -26.4253 -5.96046e-06 -2.98023e-05 -29.1521 0.506472 -21.0327 -0.0062 0.0497 0.0339 45 0 0 0 0.0215 0 0 -45 0 0 0.022 0 0 -45 0 0 0.017 0 0 0 0 0.0068 0.0873 0.0207 45 0 0 0 0.0267 0 80 0 0 0 0.0213 0 90 0 0 0 0.018 0 0 0 0 0.0067 0.0922 0.0055 45 0 0 0 0.0266 0 80 0 0 0 0.0228 0 90 0 0 0 0.015 0 0 0 0 0.0067 0.0925 -0.0113 45 0 0 0 0.0247 0 80 0 0 0 0.0221 0 90 0 0 0 0.018 0 0 0 0 0.0066 0.0935 -0.0272 45 0 0 0 0.0163 0 80 0 0 0 0.0171 0 90 0 0 0 0.018 0 0 0 0 -1.49012e-06 39.1998 0 15.9972 0.0224105 -0.0064255 5.96046e-06 14.8066 -7.15256e-05 8.96462e-06 -1.00318e-05 0 
-1.63431 26.1155 -219.342 -5.18369 12.2409 0.413799 6.03264 -6.45331 1.57955 3.27587 -16.0918 2.57659 7.45058e-07 -48.5946 0 4.78852 18.2841 1.34876e-06 0 -40.9073 0 -5.30118 -5.39971 -3.19568 -6.51984 -6.40399 2.47388 -1.98419 -15.3179 0.487235 -1.86265e-06 -48.3006 4.76837e-05 14.8675 13.9489 1.5395e-06 -7.45058e-07 -41.4343 -2.38419e-05 -14.2271 5.08975 -7.3736 0 5.72983 -5.72982 -2.2846 -9.68895 4.40843 0 39.1998 4.76837e-05 -35.7614 1.23797e-05 -2.52183 18.722 -2.98023e-05 -2.38419e-05 -10.179 39.1797 -7.95777 19.961 1.78814e-05 4.76837e-05 -3.18667e-06 2.77108e-06 -108.681 24.2122 -1.19209e-05 1.19209e-05 5.9647 -0.180196 -2.7254 0.0062 0.0497 0.0339 -42.4457 0 0 0 0.0215 0 0 -42.4457 0 0 0.022 0 0 -42.4457 0 0 0.017 0 0 0 0 -0.0068 0.0873 0.0207 -42.4457 0 0 0 0.0267 0 -75.4591 0 0 0 0.0213 0 -84.8914 0 0 0 0.018 0 0 0 0 -0.0067 0.0922 0.0055 -42.4457 0 0 0 0.0266 0 -75.4591 0 0 0 0.0228 0 -84.8914 0 0 0 0.015 0 0 0 0 -0.0067 0.0925 -0.0113 -42.4457 0 0 0 0.0247 0 -75.4591 0 0 0 0.0221 0 -84.8914 0 0 0 0.018 0 0 0 0 -0.0066 0.0935 -0.0272 -42.4457 0 0 0 0.0163 0 -75.4591 0 0 0 0.0171 0 -84.8914 0 0 0 0.018 0 0 0 0 0 39.1998 4.76837e-05 47.226 -6.4033e-06 2.22179 -21.2487 2.38419e-05 -4.76837e-05 27.5035 23.4513 -19.3348 -21.674 0 -4.76837e-05 -1.45174e-05 3.75422e-06 115.718 -26.6865 -5.96046e-06 -2.98023e-05 -27.7751 0.349939 -20.6903 -0.0062 0.0497 0.0339 45 0 0 0 0.0215 0 0 -45 0 0 0.022 0 0 -45 0 0 0.017 0 0 0 0 0.0068 0.0873 0.0207 45 0 0 0 0.0267 0 80 0 0 0 0.0213 0 90 0 0 0 0.018 0 0 0 0 0.0067 0.0922 0.0055 45 0 0 0 0.0266 0 80 0 0 0 0.0228 0 90 0 0 0 0.015 0 0 0 0 0.0067 0.0925 -0.0113 45 0 0 0 0.0247 0 80 0 0 0 0.0221 0 90 0 0 0 0.018 0 0 0 0 0.0066 0.0935 -0.0272 45 0 0 0 0.0163 0 80 0 0 0 0.0171 0 90 0 0 0 0.018 0 0 0 0 0 39.1998 4.76837e-05 18.5709 -0.348713 0.117159 0 14.3549 -7.15256e-05 9.89844e-06 -1.10991e-05 1.28066e-06 
-2.75383 26.5039 -219.298 -5.22632 13.104 1.05704 6.04804 -6.48856 1.58329 3.83628 -16.8709 3.23225 -5.96046e-06 -48.4921 4.76837e-05 4.07822 18.4043 -4.49898e-07 2.98023e-06 -41.2062 -7.15256e-05 -3.80453 -5.35007 -2.37363 -6.53159 -6.41567 2.56348 -3.08117 -16.4886 0.63062 -5.21541e-06 -48.4353 0 14.5849 15.0939 1.76856e-06 6.70552e-06 -41.8779 -2.38419e-05 -12.4249 2.85854 -7.03105 1.30385e-06 5.65672 -5.65672 -2.13598 -9.97867 4.33774 -4.47035e-06 39.1998 -4.76837e-05 -36.2296 1.07789e-05 -2.21074 19.0056 -1.19209e-05 4.76837e-05 -11.2912 38.387 -9.76874 19.7122 5.96046e-06 0 1.4558e-05 6.26487e-06 -106.307 23.6789 2.98023e-05 0 6.4168 -0.120207 -1.65581 0.0062 0.0497 0.0339 -45 0 0 0 0.0215 0 0 -45 0 0 0.022 0 0 -45 0 0 0.017 0 0 0 0 -0.0068 0.0873 0.0207 -45 0 0 0 0.0267 0 -80 0 0 0 0.0213 0 -90 0 0 0 0.018 0 0 0 0 -0.0067 0.0922 0.0055 -45 0 0 0 0.0266 0 -80 0 0 0 0.0228 0 -90 0 0 0 0.015 0 0 0 0 -0.0067 0.0925 -0.0113 -45 0 0 0 0.0247 0 -80 0 0 0 0.0221 0 -90 0 0 0 0.018 0 0 0 0 -0.0066 0.0935 -0.0272 -45 0 0 0 0.0163 0 -80 0 0 0 0.0171 0 -90 0 0 0 0.018 0 0 0 0 -4.47035e-06 39.1998 -4.76837e-05 47.6495 -4.69575e-06 1.96448 -21.3869 1.19209e-05 2.38419e-05 27.3753 25.0653 -19.2708 -21.6155 -2.98023e-05 4.76837e-05 -2.67853e-05 -2.2533e-06 116.734 -26.8601 1.19209e-05 5.96046e-06 -29.1987 0.264815 -22.1382 -0.0062 0.0497 0.0339 45 0 0 0 0.0215 0 0 -45 0 0 0.022 0 0 -45 0 0 0.017 0 0 0 0 0.0068 0.0873 0.0207 45 0 0 0 0.0267 0 80 0 0 0 0.0213 0 90 0 0 0 0.018 0 0 0 0 0.0067 0.0922 0.0055 45 0 0 0 0.0266 0 80 0 0 0 0.0228 0 90 0 0 0 0.015 0 0 0 0 0.0067 0.0925 -0.0113 45 0 0 0 0.0247 0 80 0 0 0 0.0221 0 90 0 0 0 0.018 0 0 0 0 0.0066 0.0935 -0.0272 45 0 0 0 0.0163 0 80 0 0 0 0.0171 0 90 0 0 0 0.018 0 0 0 0 -4.47035e-06 39.1998 -4.76837e-05 18.0718 -0.982495 0.320575 8.9407e-06 13.9737 4.76837e-05 9.87176e-06 -1.15259e-05 0 
